<svg xmlns="http://www.w3.org/2000/svg" viewBox="0 0 1000 1000" xml:space="preserve"><switch><g><circle fill="#382B73" cx="500" cy="500" r="398"/><circle fill="#473080" cx="500" cy="500" r="344.3"/><path fill="#382B73" d="M701.3 315.8H298.7c-11.5 0-20.9 9.4-20.9 20.9v366.7c0 11.5 9.4 20.9 20.9 20.9h402.6c11.5 0 20.9-9.4 20.9-20.9V336.7c0-11.6-9.3-20.9-20.9-20.9zm-381.7 49.5c0-4.2 3.4-7.7 7.7-7.7h345.5c4.2 0 7.7 3.4 7.7 7.7v54.5h-20.9v-9.6c0-8.8-7.2-16-16-16h-1.4c-8.8 0-16 7.2-16 16v9.5h-10.4v-9.5c0-8.8-7.2-16-16-16h-1.4c-8.8 0-16 7.2-16 16v9.5H461.6v-9.5c0-8.8-7.2-16-16-16h-1.4c-8.8 0-16 7.2-16 16v9.5h-10.4v-9.5c0-8.8-7.2-16-16-16h-1.4c-8.8 0-16 7.2-16 16v9.5H374v-9.5c0-8.8-7.2-16-16-16h-1.4c-8.8 0-16 7.2-16 16v9.5h-20.9v-54.4zM668.5 598h-9V587.6c0-8.8-7.2-16-16-16h-1.4c-8.8 0-16 7.2-16 16V598h-10.4V587.6c0-8.8-7.2-16-16-16h-1.4c-8.8 0-16 7.2-16 16V598h-10.4V587.6c0-8.8-7.2-16-16-16h-1.4c-8.8 0-16 7.2-16 16V598h-76.7v-9.5c0-8.8-7.2-16-16-16h-1.4c-8.8 0-16 7.2-16 16v9.5h-54.3v-9.5c0-8.8-7.2-16-16-16h-1.4c-8.8 0-16 7.2-16 16v9.5h-20.9v-66.9h64.8v9.6c0 8.8 7.2 16 16 16h1.4c8.8 0 16-7.2 16-16v-9.6h10.4v9.6c0 8.8 7.2 16 16 16h1.4c8.8 0 16-7.2 16-16v-9.6h164.5v9.6c0 8.8 7.2 16 16 16h1.4c8.8 0 16-7.2 16-16v-9.6h20.9V598h-12.1zm0-89.1h-9v-9.6c0-8.8-7.2-16-16-16h-1.4c-8.8 0-16 7.2-16 16v9.5H461.6v-9.5c0-8.8-7.2-16-16-16h-1.4c-8.8 0-16 7.2-16 16v9.5h-10.4v-9.5c0-8.8-7.2-16-16-16h-1.4c-8.8 0-16 7.2-16 16v9.5h-64.8V442h20.9v9.6c0 8.8 7.2 16 16 16h1.4c8.8 0 16-7.2 16-16V442h10.4v9.6c0 8.8 7.2 16 16 16h1.4c8.8 0 16-7.2 16-16V442h10.4v9.6c0 8.8 7.2 16 16 16h1.4c8.8 0 16-7.2 16-16V442h120.6v9.6c0 8.8 7.2 16 16 16h1.4c8.8 0 16-7.2 16-16V442h10.4v9.6c0 8.8 7.2 16 16 16h1.4c8.8 0 16-7.2 16-16V442h20.9v66.9h-11.7zm4.2 173.5H327.3c-4.2 0-7.7-3.4-7.7-7.7v-54.5h20.9v9.6c0 8.8 7.2 16 16 16h1.4c8.8 0 16-7.2 16-16v-9.6h54.3v9.6c0 8.8 7.2 16 16 16h1.4c8.8 0 16-7.2 16-16v-9.6h76.7v8.7c0 8.8 7.2 16 16 16h1.4c8.8 0 16-7.2 16-16v-8.7h10.4v8.7c0 8.8 7.2 16 16 16h1.4c8.8 0 16-7.2 16-16v-8.7h10.4v8.7c0 8.8 7.2 16 16 16h1.4c8.8 0 16-7.2 16-16v-8.7h20.9v54.5c.2 4.3-3.2 7.7-7.5 7.7z"/><g><path fill="#E6E7E8" d="M293.2 488.9h413.6v22.3H293.2z"/><path fill="#FFF" d="M293.2 488.9h413.6v3.1H293.2z"/><path fill="#D1D3D4" d="M293.2 500.7h413.6v10.4H293.2z"/><path fill="#BCBEC0" d="M319.6 500.7h11.9v10.4h-11.9z"/><path fill="#D1D3D4" d="M319.6 492h11.9v8.7h-11.9z"/><path fill="#E6E7E8" d="M319.6 488.9h11.9v3.1h-11.9z"/><path fill="#BCBEC0" d="M668.5 500.7h11.9v10.4h-11.9z"/><path fill="#D1D3D4" d="M668.5 492h11.9v8.7h-11.9z"/><path fill="#E6E7E8" d="M668.5 488.9h11.9v3.1h-11.9zM293.2 578h413.6v22.3H293.2z"/><path fill="#FFF" d="M293.2 578h413.6v3.1H293.2z"/><path fill="#D1D3D4" d="M293.2 589.8h413.6v10.4H293.2z"/><path fill="#BCBEC0" d="M319.6 589.8h11.9v10.4h-11.9z"/><path fill="#D1D3D4" d="M319.6 581.1h11.9v8.7h-11.9z"/><path fill="#E6E7E8" d="M319.6 578h11.9v3.1h-11.9z"/><path fill="#BCBEC0" d="M668.5 589.8h11.9v10.4h-11.9z"/><path fill="#D1D3D4" d="M668.5 581.1h11.9v8.7h-11.9z"/><path fill="#E6E7E8" d="M668.5 578h11.9v3.1h-11.9z"/><g><path fill="#E6E7E8" d="M293.2 399.7h413.6V422H293.2z"/><path fill="#FFF" d="M293.2 399.7h413.6v3.1H293.2z"/><path fill="#D1D3D4" d="M293.2 411.6h413.6V422H293.2z"/><g><path fill="#BCBEC0" d="M319.6 411.6h11.9V422h-11.9z"/><path fill="#D1D3D4" d="M319.6 402.9h11.9v8.7h-11.9z"/><path fill="#E6E7E8" d="M319.6 399.7h11.9v3.1h-11.9z"/></g><g><path fill="#BCBEC0" d="M668.5 411.6h11.9V422h-11.9z"/><path fill="#D1D3D4" d="M668.5 402.9h11.9v8.7h-11.9z"/><path fill="#E6E7E8" d="M668.5 399.7h11.9v3.1h-11.9z"/></g></g><g><path fill="#FFF" d="M701.3 704.2H298.7c-11.5 0-20.9-9.4-20.9-20.9V316.7c0-11.5 9.4-20.9 20.9-20.9h402.6c11.5 0 20.9 9.4 20.9 20.9v366.7c0 11.5-9.3 20.8-20.9 20.8zm-381.7-41.8h360.9V337.6H319.6v324.8z"/></g><g><path fill="#D1D3D4" d="M306.4 683.3h387.3c4.2 0 7.7-3.4 7.7-7.7V324.4c0-4.2-3.4-7.7-7.7-7.7H306.4c-4.2 0-7.7 3.4-7.7 7.7v351.3c0 4.2 3.4 7.6 7.7 7.6zm20.9-345.7h345.5c4.2 0 7.7 3.4 7.7 7.7v309.5c0 4.2-3.4 7.7-7.7 7.7H327.3c-4.2 0-7.7-3.4-7.7-7.7V345.3c0-4.3 3.4-7.7 7.7-7.7z"/></g><g><path fill="#EF5A9D" d="M357.9 447.6h-1.4c-8.8 0-16-7.2-16-16v-41.5c0-8.8 7.2-16 16-16h1.4c8.8 0 16 7.2 16 16v41.5c0 8.8-7.2 16-16 16z"/><path fill="#E43D91" d="M357.2 426.7c-9.2 0-16.7-7.5-16.7-16.7v20.9c0 9.2 7.5 16.7 16.7 16.7s16.7-7.5 16.7-16.7V410c0 9.2-7.5 16.7-16.7 16.7z"/><path fill="#F06EA9" d="M357.2 374.1c-9.2 0-16.7 7.5-16.7 16.7v3.1c0-9.2 7.5-16.7 16.7-16.7s16.7 7.5 16.7 16.7v-3.1c0-9.2-7.5-16.7-16.7-16.7z"/></g><g><path fill="#FEDE3A" d="M357.9 625.9h-1.4c-8.8 0-16-7.2-16-16v-41.5c0-8.8 7.2-16 16-16h1.4c8.8 0 16 7.2 16 16v41.5c0 8.8-7.2 16-16 16z"/><path fill="#F7CB15" d="M357.2 605c-9.2 0-16.7-7.5-16.7-16.7v20.9c0 9.2 7.5 16.7 16.7 16.7s16.7-7.5 16.7-16.7v-20.9c0 9.2-7.5 16.7-16.7 16.7z"/><path fill="#FFF335" d="M357.2 552.4c-9.2 0-16.7 7.5-16.7 16.7v3.1c0-9.2 7.5-16.7 16.7-16.7s16.7 7.5 16.7 16.7v-3.1c0-9.2-7.5-16.7-16.7-16.7z"/></g><g><path fill="#EF5A9D" d="M401.8 447.6h-1.4c-8.8 0-16-7.2-16-16v-41.5c0-8.8 7.2-16 16-16h1.4c8.8 0 16 7.2 16 16v41.5c0 8.8-7.2 16-16 16z"/><path fill="#E43D91" d="M401.1 426.7c-9.2 0-16.7-7.5-16.7-16.7v20.9c0 9.2 7.5 16.7 16.7 16.7s16.7-7.5 16.7-16.7V410c0 9.2-7.5 16.7-16.7 16.7z"/><path fill="#F06EA9" d="M401.1 374.1c-9.2 0-16.7 7.5-16.7 16.7v3.1c0-9.2 7.5-16.7 16.7-16.7s16.7 7.5 16.7 16.7v-3.1c0-9.2-7.5-16.7-16.7-16.7z"/></g><g><path fill="#EF5A9D" d="M445.6 447.6h-1.4c-8.8 0-16-7.2-16-16v-41.5c0-8.8 7.2-16 16-16h1.4c8.8 0 16 7.2 16 16v41.5c0 8.8-7.1 16-16 16z"/><path fill="#E43D91" d="M444.9 426.7c-9.2 0-16.7-7.5-16.7-16.7v20.9c0 9.2 7.5 16.7 16.7 16.7s16.7-7.5 16.7-16.7V410c0 9.2-7.4 16.7-16.7 16.7z"/><path fill="#F06EA9" d="M444.9 374.1c-9.2 0-16.7 7.5-16.7 16.7v3.1c0-9.2 7.5-16.7 16.7-16.7s16.7 7.5 16.7 16.7v-3.1c0-9.2-7.4-16.7-16.7-16.7z"/></g><g><path fill="#1CAEE4" d="M401.8 536.7h-1.4c-8.8 0-16-7.2-16-16v-41.5c0-8.8 7.2-16 16-16h1.4c8.8 0 16 7.2 16 16v41.5c0 8.9-7.2 16-16 16z"/><path fill="#009ADD" d="M401.1 515.8c-9.2 0-16.7-7.5-16.7-16.7V520c0 9.2 7.5 16.7 16.7 16.7s16.7-7.5 16.7-16.7v-20.9c0 9.3-7.5 16.7-16.7 16.7z"/><path fill="#27C1E6" d="M401.1 463.3c-9.2 0-16.7 7.5-16.7 16.7v3.1c0-9.2 7.5-16.7 16.7-16.7s16.7 7.5 16.7 16.7V480c0-9.3-7.5-16.7-16.7-16.7z"/></g><g><path fill="#1CAEE4" d="M445.6 536.7h-1.4c-8.8 0-16-7.2-16-16v-41.5c0-8.8 7.2-16 16-16h1.4c8.8 0 16 7.2 16 16v41.5c0 8.9-7.1 16-16 16z"/><path fill="#009ADD" d="M444.9 515.8c-9.2 0-16.7-7.5-16.7-16.7V520c0 9.2 7.5 16.7 16.7 16.7s16.7-7.5 16.7-16.7v-20.9c0 9.3-7.4 16.7-16.7 16.7z"/><path fill="#27C1E6" d="M444.9 463.3c-9.2 0-16.7 7.5-16.7 16.7v3.1c0-9.2 7.5-16.7 16.7-16.7s16.7 7.5 16.7 16.7V480c0-9.3-7.4-16.7-16.7-16.7z"/></g><g><path fill="#FEDE3A" d="M445.6 625.9h-1.4c-8.8 0-16-7.2-16-16v-41.5c0-8.8 7.2-16 16-16h1.4c8.8 0 16 7.2 16 16v41.5c0 8.8-7.1 16-16 16z"/><path fill="#F7CB15" d="M444.9 605c-9.2 0-16.7-7.5-16.7-16.7v20.9c0 9.2 7.5 16.7 16.7 16.7s16.7-7.5 16.7-16.7v-20.9c0 9.2-7.4 16.7-16.7 16.7z"/><path fill="#FFF335" d="M444.9 552.4c-9.2 0-16.7 7.5-16.7 16.7v3.1c0-9.2 7.5-16.7 16.7-16.7s16.7 7.5 16.7 16.7v-3.1c0-9.2-7.4-16.7-16.7-16.7z"/></g><g><path fill="#EF5A9D" d="M599.7 447.6h-1.4c-8.8 0-16-7.2-16-16v-41.5c0-8.8 7.2-16 16-16h1.4c8.8 0 16 7.2 16 16v41.5c0 8.8-7.2 16-16 16z"/><path fill="#E43D91" d="M598.9 426.7c-9.2 0-16.7-7.5-16.7-16.7v20.9c0 9.2 7.5 16.7 16.7 16.7s16.7-7.5 16.7-16.7V410c.1 9.2-7.4 16.7-16.7 16.7z"/><path fill="#F06EA9" d="M598.9 374.1c-9.2 0-16.7 7.5-16.7 16.7v3.1c0-9.2 7.5-16.7 16.7-16.7s16.7 7.5 16.7 16.7v-3.1c.1-9.2-7.4-16.7-16.7-16.7z"/></g><g><path fill="#FEDE3A" d="M599.7 625h-1.4c-8.8 0-16-7.2-16-16v-41.5c0-8.8 7.2-16 16-16h1.4c8.8 0 16 7.2 16 16V609c0 8.8-7.2 16-16 16z"/><path fill="#F7CB15" d="M598.9 604.1c-9.2 0-16.7-7.5-16.7-16.7v20.9c0 9.2 7.5 16.7 16.7 16.7s16.7-7.5 16.7-16.7v-20.9c.1 9.2-7.4 16.7-16.7 16.7z"/><path fill="#FFF335" d="M598.9 551.5c-9.2 0-16.7 7.5-16.7 16.7v3.1c0-9.2 7.5-16.7 16.7-16.7s16.7 7.5 16.7 16.7v-3.1c.1-9.2-7.4-16.7-16.7-16.7z"/></g><g><path fill="#FEDE3A" d="M555.8 625h-1.4c-8.8 0-16-7.2-16-16v-41.5c0-8.8 7.2-16 16-16h1.4c8.8 0 16 7.2 16 16V609c0 8.8-7.2 16-16 16z"/><path fill="#F7CB15" d="M555.1 604.1c-9.2 0-16.7-7.5-16.7-16.7v20.9c0 9.2 7.5 16.7 16.7 16.7s16.7-7.5 16.7-16.7v-20.9c0 9.2-7.5 16.7-16.7 16.7z"/><path fill="#FFF335" d="M555.1 551.5c-9.2 0-16.7 7.5-16.7 16.7v3.1c0-9.2 7.5-16.7 16.7-16.7s16.7 7.5 16.7 16.7v-3.1c0-9.2-7.5-16.7-16.7-16.7z"/></g><g><path fill="#EF5A9D" d="M643.5 447.6h-1.4c-8.8 0-16-7.2-16-16v-41.5c0-8.8 7.2-16 16-16h1.4c8.8 0 16 7.2 16 16v41.5c0 8.8-7.1 16-16 16z"/><path fill="#E43D91" d="M642.8 426.7c-9.2 0-16.7-7.5-16.7-16.7v20.9c0 9.2 7.5 16.7 16.7 16.7s16.7-7.5 16.7-16.7V410c0 9.2-7.5 16.7-16.7 16.7z"/><path fill="#F06EA9" d="M642.8 374.1c-9.2 0-16.7 7.5-16.7 16.7v3.1c0-9.2 7.5-16.7 16.7-16.7s16.7 7.5 16.7 16.7v-3.1c0-9.2-7.5-16.7-16.7-16.7z"/></g><g><path fill="#1CAEE4" d="M643.5 536.7h-1.4c-8.8 0-16-7.2-16-16v-41.5c0-8.8 7.2-16 16-16h1.4c8.8 0 16 7.2 16 16v41.5c0 8.9-7.1 16-16 16z"/><path fill="#009ADD" d="M642.8 515.8c-9.2 0-16.7-7.5-16.7-16.7V520c0 9.2 7.5 16.7 16.7 16.7s16.7-7.5 16.7-16.7v-20.9c0 9.3-7.5 16.7-16.7 16.7z"/><path fill="#27C1E6" d="M642.8 463.3c-9.2 0-16.7 7.5-16.7 16.7v3.1c0-9.2 7.5-16.7 16.7-16.7s16.7 7.5 16.7 16.7V480c0-9.3-7.5-16.7-16.7-16.7z"/></g><g><path fill="#FEDE3A" d="M643.5 625h-1.4c-8.8 0-16-7.2-16-16v-41.5c0-8.8 7.2-16 16-16h1.4c8.8 0 16 7.2 16 16V609c0 8.8-7.1 16-16 16z"/><path fill="#F7CB15" d="M642.8 604.1c-9.2 0-16.7-7.5-16.7-16.7v20.9c0 9.2 7.5 16.7 16.7 16.7s16.7-7.5 16.7-16.7v-20.9c0 9.2-7.5 16.7-16.7 16.7z"/><path fill="#FFF335" d="M642.8 551.5c-9.2 0-16.7 7.5-16.7 16.7v3.1c0-9.2 7.5-16.7 16.7-16.7s16.7 7.5 16.7 16.7v-3.1c0-9.2-7.5-16.7-16.7-16.7z"/></g></g></g></switch></svg>